<?xml version="1.0" standalone="no"?>
<!DOCTYPE svg PUBLIC "-//W3C//DTD SVG 1.1//EN" "http://www.w3.org/Graphics/SVG/1.1/DTD/svg11.dtd">
<svg t="1680587478809" class="icon" viewBox="0 0 1820 1024" version="1.1" xmlns="http://www.w3.org/2000/svg" p-id="9361" xmlns:xlink="http://www.w3.org/1999/xlink" width="355.46875" height="200">
    <path d="M750.933333 496.071111c-2.958222-4.664889-5.575111-6.940444-10.581333-8.874667l0.455111-1.024c5.233778 2.048 8.192 4.437333 11.150222 9.329778l-1.024 0.568889z" fill="#ED1C24" p-id="9362"></path>
    <path d="M752.526222 497.664c0-0.113778-5.688889-10.24-13.539555-17.180444l0.796444-0.910223c7.964444 7.054222 13.767111 17.294222 13.767111 17.408l-1.024 0.682667z" fill="#F7941E" p-id="9363"></path>
    <path d="M752.981333 498.574222c-0.227556-0.455111-5.802667-10.353778-7.395555-16.725333l1.137778-0.227556c1.592889 6.257778 7.168 16.384 7.281777 16.497778l-1.024 0.455111z" fill="#00AEEF" p-id="9364"></path>
    <path d="M761.400889 523.605333c-2.161778-11.719111-8.874667-23.552-12.629333-29.468444l2.844444-1.820445c3.868444 6.144 10.808889 18.432 13.198222 30.72l-3.413333 0.568889zM42.439111 823.409778c-13.994667 0-28.103111 0-42.439111-0.113778v-3.413333c230.058667 1.251556 413.468444-7.395556 516.323556-24.234667 107.633778-17.635556 175.217778-45.624889 212.650666-88.064 32.426667-36.750222 43.804444-85.560889 36.864-158.264889l3.413334-0.341333c7.054222 73.728-4.551111 123.335111-37.660445 160.881778-38.001778 43.121778-106.268444 71.452444-214.698667 89.201777-96.597333 15.815111-264.078222 24.348444-474.453333 24.348445zM1820.444444 823.409778c-235.747556 0-377.969778-7.850667-507.335111-27.875556-126.976-19.683556-205.937778-51.086222-248.263111-98.759111-32.199111-36.181333-43.463111-78.961778-38.912-147.569778l3.413334 0.227556c-4.437333 67.584 6.485333 109.568 38.001777 145.066667 41.870222 47.104 120.149333 78.165333 246.328889 97.621333 129.251556 20.024889 271.36 27.875556 506.88 27.875555v3.413334z" fill="#6D6E71" p-id="9365"></path>
    <path d="M1043.456 487.992889l-0.910222-0.568889c3.072-4.892444 5.916444-7.281778 11.150222-9.329778l0.455111 1.024c-5.12 1.934222-7.736889 4.209778-10.695111 8.874667z" fill="#ED1C24" p-id="9366"></path>
    <path d="M1041.863111 489.472l-1.024-0.568889c0.113778-0.113778 5.802667-10.467556 13.767111-17.408l0.796445 0.910222c-7.850667 6.826667-13.425778 16.952889-13.539556 17.066667z" fill="#F7941E" p-id="9367"></path>
    <path d="M1041.408 490.496l-1.024-0.568889c0-0.113778 5.688889-10.24 7.281778-16.497778l1.137778 0.227556c-1.706667 6.371556-7.168 16.384-7.395556 16.839111z" fill="#00AEEF" p-id="9368"></path>
    <path d="M1032.760889 523.491556l-3.413333-0.455112c1.024-8.078222 5.916444-29.240889 13.539555-39.025777l2.730667 2.048c-6.826667 8.760889-11.719111 28.672-12.856889 37.432889z" fill="#6D6E71" p-id="9369"></path>
    <path d="M742.0928 440.281316l1.608818-1.608818 9.654044 9.654044-1.608818 1.609956z" fill="#006934" p-id="9370"></path>
    <path d="M742.0928 448.332231l9.655182-9.655182 1.608818 1.609955-9.654044 9.654045z" fill="#006934" p-id="9371"></path>
    <path d="M1071.633067 533.910187l1.608817-1.609956 9.654045 9.655182-1.608818 1.608818z" fill="#006934" p-id="9372"></path>
    <path d="M1071.737742 541.948587l9.654045-9.654045 1.609955 1.608818-9.655182 9.654044z" fill="#006934" p-id="9373"></path>
    <path d="M714.654151 515.830898l1.608818-1.608818 6.275982 6.274844-1.608818 1.608818z" fill="#006934" p-id="9374"></path>
    <path d="M714.6496 520.465067l6.274844-6.275983 1.608818 1.608818-6.274844 6.275982z" fill="#006934" p-id="9375"></path>
    <path d="M1079.3472 436.605156l1.608818-1.608818 6.275982 6.274844-1.608818 1.609956z" fill="#006934" p-id="9376"></path>
    <path d="M1079.3472 441.271182l6.275982-6.274844 1.608818 1.608818-6.275982 6.275982z" fill="#006934" p-id="9377"></path>
    <path d="M997.603556 517.12c-2.503111 0-4.551111-2.048-4.551112-4.551111s2.048-4.551111 4.551112-4.551111 4.551111 2.048 4.551111 4.551111-2.048 4.551111-4.551111 4.551111z m0-6.826667c-1.251556 0-2.275556 1.024-2.275556 2.275556s1.024 2.275556 2.275556 2.275555 2.275556-1.024 2.275555-2.275555-1.024-2.275556-2.275555-2.275556z" fill="#006934" p-id="9378"></path>
    <path d="M800.540444 485.831111c-2.161778 0-3.982222-1.820444-3.982222-3.982222s1.820444-3.982222 3.982222-3.982222 3.982222 1.820444 3.982223 3.982222-1.706667 3.982222-3.982223 3.982222z m0-5.688889c-0.910222 0-1.706667 0.796444-1.706666 1.706667s0.796444 1.706667 1.706666 1.706667 1.706667-0.796444 1.706667-1.706667-0.682667-1.706667-1.706667-1.706667z" fill="#6D6E71" p-id="9379"></path>
    <path d="M967.452444 461.141333h4.778667v2.275556h-4.778667zM969.841778 465.692444h7.509333v2.275556h-7.509333z" fill="#6D6E71" p-id="9380"></path>
    <path d="M799.402667 426.552889h12.401777v2.275555h-12.401777zM818.176 426.552889h3.640889v2.275555h-3.640889zM805.546667 431.672889h23.779555v2.275555H805.546667z" fill="#6D6E71" p-id="9381"></path>
    <path d="M1011.256889 410.168889h15.36v2.275555h-15.36zM1021.269333 405.959111h10.24v2.275556h-10.24z" fill="#6D6E71" p-id="9382"></path>
    <path d="M961.422222 439.409778l25.144889-67.697778-283.306667-11.264-0.113777-0.910222-30.606223-220.046222 1.251556-0.113778 439.864889-25.941334-16.156445 261.688889-79.416888-1.137777-56.661334 65.422222z m-256.113778-81.237334l282.168889 11.264c0.568889 0 1.024 0.341333 1.365334 0.796445 0.341333 0.455111 0.341333 1.024 0.113777 1.592889l-21.048888 56.661333 48.696888-56.206222c0.455111-0.568889 1.024-0.568889 1.365334-0.568889l77.368889 1.137778 15.815111-257.024-436.110222 25.713778 30.264888 216.632888z m312.661334 15.815112z m-31.175111-2.958223z" fill="#6D6E71" p-id="9383"></path>
    <path d="M910.449778 457.045333c0-1.479111-1.251556-2.730667-2.730667-2.730666-1.479111 0-2.730667 1.251556-2.730667 2.730666 0 1.479111 1.251556 2.730667 2.730667 2.730667 1.479111 0.113778 2.730667-1.137778 2.730667-2.730667z" fill="#006934" p-id="9384"></path><path d="M888.490667 457.045333m-2.730667 0a2.730667 2.730667 0 1 0 5.461333 0 2.730667 2.730667 0 1 0-5.461333 0Z" fill="#006934" p-id="9385"></path>
    <path d="M890.652444 448.967111c0.682667 0 1.251556-0.568889 1.251556-1.251555 0-0.682667-0.568889-1.251556-1.251556-1.251556h-7.281777c-0.682667 0-1.251556 0.568889-1.251556 1.251556 0 0.682667 0.568889 1.251556 1.251556 1.251555h7.281777zM913.863111 447.715556c0-0.682667-0.568889-1.251556-1.251555-1.251556h-7.281778c-0.682667 0-1.251556 0.568889-1.251556 1.251556 0 0.682667 0.568889 1.251556 1.251556 1.251555h7.281778c0.682667 0 1.251556-0.568889 1.251555-1.251555zM905.443556 555.918222V529.066667l-17.749334 6.485333v3.185778h3.185778c0.227556 0 1.592889 0 1.592889 1.592889v16.156444c0 2.503111 2.275556 4.778667 4.778667 4.778667h14.449777v-1.592889c-3.072 0-6.257778-1.592889-6.257777-3.754667zM897.820444 513.137778c-14.563556 0-24.348444-8.419556-24.462222-8.533334l1.706667-1.934222c0.796444 0.682667 20.366222 17.521778 45.966222 0.227556l1.365333 2.048c-8.988444 6.144-17.408 8.192-24.576 8.192z" fill="#006934" p-id="9386"></path>
    <path d="M942.421333 410.396444c-21.617778 37.319111-69.632 19.114667-69.632 19.114667s1.706667 16.839111-10.012444 26.168889c-4.437333-3.754667-14.791111-22.528 4.323555-33.792 0 0 9.443556-31.288889 46.307556-27.534222 17.521778 1.934222 29.013333 16.042667 29.013333 16.042666zM898.503111 492.657778c-0.910222 0-1.706667-0.796444-1.706667-1.706667s0.796444-1.706667 1.706667-1.706667c12.629333 0 21.276444-7.850667 24.462222-11.264 6.826667-7.281778 8.192-15.815111 8.192-26.168888v-17.408c0-0.910222 0.796444-1.706667 1.706667-1.706667s1.706667 0.796444 1.706667 1.706667v17.408c0 9.784889-1.137778 19.911111-9.102223 28.558222-3.413333 3.754667-12.970667 12.288-26.965333 12.288z" fill="#006934" p-id="9387"></path><path d="M898.503111 492.657778c-13.994667 0-23.552-8.647111-26.965333-12.288-8.078222-8.647111-9.102222-18.773333-9.102222-28.558222v-17.408h3.413333v17.408c0 10.467556 1.365333 18.887111 8.192 26.168888 3.185778 3.413333 11.832889 11.264 24.462222 11.264v3.413334zM932.864 468.081778c-0.682667 0-1.365333-0.113778-1.820444-0.113778-0.910222-0.227556-1.592889-1.024-1.365334-1.934222 0.227556-0.910222 1.024-1.479111 1.934222-1.365334 0.227556 0 4.664889 0.796444 6.030223-2.503111 0.568889-1.479111 0.568889-2.730667 0-3.754666-1.024-2.161778-4.209778-3.299556-5.233778-3.527111-0.910222-0.227556-1.479111-1.137778-1.251556-2.048 0.227556-0.910222 1.137778-1.479111 2.048-1.251556 0.227556 0 5.461333 1.365333 7.509334 5.347556 1.024 2.048 1.024 4.209778 0.113777 6.599111-1.479111 3.640889-5.233778 4.551111-7.964444 4.551111z" fill="#006934" p-id="9388"></path>
    <path d="M863.573333 468.081778c-2.730667 0-6.485333-1.024-7.964444-4.778667-0.910222-2.389333-0.910222-4.664889 0.113778-6.599111 2.048-3.982222 7.281778-5.233778 7.509333-5.347556 0.910222-0.227556 1.820444 0.341333 2.048 1.251556 0.227556 0.910222-0.341333 1.820444-1.251556 2.048-1.137778 0.227556-4.209778 1.479111-5.233777 3.527111-0.568889 1.137778-0.568889 2.389333 0 3.754667 1.365333 3.299556 5.802667 2.503111 6.030222 2.503111 0.910222-0.113778 1.820444 0.455111 1.934222 1.365333 0.113778 0.910222-0.455111 1.820444-1.365333 1.934222-0.455111 0.341333-1.137778 0.341333-1.820445 0.341334zM908.629333 477.752889c-0.341333 0-0.682667-0.113778-1.024-0.455111-0.113778-0.227556-3.413333-4.096-9.443555-4.096-6.030222 0-9.557333 4.096-9.671111 4.096-0.455111 0.568889-1.251556 0.568889-1.820445 0.113778s-0.568889-1.251556-0.113778-1.820445c0.227556-0.227556 4.323556-5.006222 11.605334-5.006222 7.281778 0 11.264 4.892444 11.377778 5.006222 0.455111 0.568889 0.341333 1.365333-0.227556 1.820445-0.113778 0.341333-0.341333 0.341333-0.682667 0.341333zM900.323556 625.436444h-39.480889c-0.910222 0-1.706667-0.682667-1.820445-1.706666l-3.982222-61.781334-11.150222 13.767112c-0.341333 0.341333-0.796444 0.682667-1.251556 0.682666-0.455111 0-1.024-0.113778-1.365333-0.455111l-21.845333-21.162667c-0.682667-0.568889-0.682667-1.592889-0.227556-2.275555l27.192889-37.205333c2.616889-3.527111 6.144-6.144 10.24-7.509334l26.965333-9.216c1.706667-0.568889 2.844444-2.161778 2.844445-3.982222v-4.664889h3.527111v4.664889c0 3.299556-2.161778 6.257778-5.233778 7.395556l-26.965333 9.216c-3.413333 1.137778-6.371556 3.299556-8.533334 6.257777l-26.282666 35.953778 19.342222 18.773333 12.743111-15.928888c0.455111-0.568889 1.251556-0.796444 1.934222-0.568889 0.682667 0.227556 1.137778 0.796444 1.251556 1.592889l4.096 64.625777h37.774222v3.527111z" fill="#006934" p-id="9389"></path><path d="M821.020444 591.416889c-2.389333 0-4.778667-0.910222-6.485333-2.503111l-41.187555-37.888h-16.384c-2.844444 0-5.12-2.275556-5.12-5.12v-19.456c0-2.844444 2.275556-5.12 5.12-5.12h7.054222a3.868444 3.868444 0 0 1 3.868444-3.640889h4.892445c2.730667 0 5.12 1.479111 6.485333 3.754667l8.760889 15.246222 29.468444 24.348444 5.12-5.802666 2.730667 2.389333-6.257778 7.168c-0.682667 0.682667-1.706667 0.796444-2.503111 0.227555l-31.061333-25.6-0.455111-0.455111-8.874667-15.473777c-0.682667-1.251556-2.048-1.934222-3.413333-1.934223h-4.892445c-0.113778 0-0.227556 0.113778-0.227555 0.227556v1.592889c0 1.024-0.796444 1.820444-1.820445 1.820444h-8.760889c-0.796444 0-1.479111 0.682667-1.479111 1.479111V546.133333c0 0.796444 0.682667 1.479111 1.479111 1.479111h17.066667c0.455111 0 0.910222 0.113778 1.251556 0.455112l41.756444 38.343111c1.251556 1.137778 2.844444 1.706667 4.551111 1.592889 1.706667-0.113778 3.185778-0.910222 4.209778-2.275556l12.288-15.473778 2.844444 2.161778-12.288 15.473778c-1.592889 2.048-4.096 3.413333-6.712889 3.640889-0.568889-0.113778-0.796444-0.113778-1.024-0.113778z" fill="#006934" p-id="9390"></path><path d="M773.347556 538.282667H765.724444c-1.024 0-1.820444-0.796444-1.820444-1.820445v-13.312c0-1.024 0.796444-1.820444 1.820444-1.820444s1.820444 0.796444 1.820445 1.820444V534.755556h3.982222v-6.599112c0-1.024 0.796444-1.820444 1.820445-1.820444s1.820444 0.796444 1.820444 1.820444v8.419556c-0.113778 0.910222-0.910222 1.706667-1.820444 1.706667z" fill="#006934" p-id="9391"></path><path d="M765.724444 531.456h-12.060444c-0.682667 0-1.251556-0.568889-1.251556-1.251556s0.568889-1.251556 1.251556-1.251555H765.724444c0.682667 0 1.251556 0.568889 1.251556 1.251555s-0.568889 1.251556-1.251556 1.251556z" fill="#006934" p-id="9392"></path><path d="M765.724444 537.827556h-12.060444c-0.682667 0-1.251556-0.568889-1.251556-1.251556s0.568889-1.251556 1.251556-1.251556H765.724444c0.682667 0 1.251556 0.568889 1.251556 1.251556s-0.568889 1.251556-1.251556 1.251556z" fill="#006934" p-id="9393"></path><path d="M769.479111 544.199111h-15.928889c-0.682667 0-1.251556-0.568889-1.251555-1.251555s0.568889-1.251556 1.251555-1.251556h14.677334V537.031111c0-0.682667 0.568889-1.251556 1.251555-1.251555s1.251556 0.568889 1.251556 1.251555v5.916445c0 0.682667-0.568889 1.251556-1.251556 1.251555z" fill="#006934" p-id="9394"></path><path d="M765.952 550.570667c-0.682667 0-1.251556-0.568889-1.251556-1.251556v-6.257778c0-0.682667 0.568889-1.251556 1.251556-1.251555s1.251556 0.568889 1.251556 1.251555v6.257778c0 0.682667-0.568889 1.251556-1.251556 1.251556z" fill="#006934" p-id="9395"></path><path d="M934.229333 625.436444h-39.480889v-3.527111h37.774223l4.096-64.625777c0-0.682667 0.568889-1.365333 1.251555-1.592889 0.682667-0.227556 1.479111 0 1.934222 0.568889l12.743112 15.928888 19.342222-18.773333-26.282667-35.953778c-2.161778-2.958222-5.12-5.12-8.533333-6.257777l-26.965334-9.216c-3.185778-1.024-5.233778-3.982222-5.233777-7.395556v-4.664889h3.527111v4.664889c0 1.820444 1.137778 3.413333 2.844444 3.982222l26.965334 9.216c4.096 1.365333 7.623111 3.982222 10.24 7.509334l27.192888 37.205333c0.568889 0.682667 0.455111 1.706667-0.227555 2.275555l-21.845333 21.162667c-0.341333 0.341333-0.796444 0.568889-1.365334 0.455111-0.455111 0-0.910222-0.227556-1.251555-0.682666l-11.150223-13.767112-3.982222 61.781334c0.113778 1.024-0.682667 1.706667-1.592889 1.706666z" fill="#006934" p-id="9396"></path><path d="M974.051556 591.416889h-0.796445c-2.616889-0.227556-5.12-1.479111-6.712889-3.640889L954.368 572.302222l2.844444-2.161778 12.288 15.473778c1.024 1.365333 2.616889 2.161778 4.209778 2.275556 1.706667 0.113778 3.299556-0.455111 4.551111-1.592889l41.756445-38.343111c0.341333-0.341333 0.796444-0.455111 1.251555-0.455111h17.066667c0.796444 0 1.479111-0.682667 1.479111-1.479111v-19.456c0-0.796444-0.682667-1.479111-1.479111-1.479112h-8.760889c-1.024 0-1.820444-0.796444-1.820444-1.820444v-1.592889c0-0.113778-0.113778-0.227556-0.227556-0.227555h-4.892444c-1.365333 0-2.730667 0.796444-3.413334 1.934222l-8.874666 15.473778c-0.113778 0.227556-0.227556 0.341333-0.455111 0.455111l-31.061334 25.6c-0.796444 0.568889-1.820444 0.568889-2.503111-0.227556l-6.257778-7.168 2.730667-2.389333 5.12 5.802666 29.468444-24.348444 8.760889-15.246222c1.365333-2.275556 3.868444-3.754667 6.485334-3.754667h4.892444c2.048 0 3.640889 1.592889 3.868445 3.640889h7.054222c2.844444 0 5.12 2.275556 5.12 5.12v19.456c0 2.844444-2.275556 5.12-5.12 5.12h-16.384l-41.187556 37.888c-2.048 1.706667-4.323556 2.616889-6.826666 2.616889z" fill="#006934" p-id="9397"></path><path d="M1029.347556 538.282667H1021.724444c-1.024 0-1.820444-0.796444-1.820444-1.820445v-8.419555c0-1.024 0.796444-1.820444 1.820444-1.820445s1.820444 0.796444 1.820445 1.820445v6.599111h3.982222v-11.491556c0-1.024 0.796444-1.820444 1.820445-1.820444s1.820444 0.796444 1.820444 1.820444v13.312c0 1.024-0.796444 1.820444-1.820444 1.820445z" fill="#006934" p-id="9398"></path><path d="M1041.521778 531.456h-12.060445c-0.682667 0-1.251556-0.568889-1.251555-1.251556s0.568889-1.251556 1.251555-1.251555h12.060445c0.682667 0 1.251556 0.568889 1.251555 1.251555s-0.568889 1.251556-1.251555 1.251556z" fill="#006934" p-id="9399"></path><path d="M1041.521778 537.827556h-12.060445c-0.682667 0-1.251556-0.568889-1.251555-1.251556s0.568889-1.251556 1.251555-1.251556h12.060445c0.682667 0 1.251556 0.568889 1.251555 1.251556s-0.568889 1.251556-1.251555 1.251556z" fill="#006934" p-id="9400"></path>
    <path d="M1041.521778 544.199111h-15.928889c-0.682667 0-1.251556-0.568889-1.251556-1.251555V537.031111c0-0.682667 0.568889-1.251556 1.251556-1.251555s1.251556 0.568889 1.251555 1.251555v4.664889h14.677334c0.682667 0 1.251556 0.568889 1.251555 1.251556s-0.568889 1.251556-1.251555 1.251555z" fill="#006934" p-id="9401"></path>
    <path d="M1029.12 550.570667c-0.682667 0-1.251556-0.568889-1.251556-1.251556v-6.257778c0-0.682667 0.568889-1.251556 1.251556-1.251555s1.251556 0.568889 1.251556 1.251555v6.257778c0 0.682667-0.568889 1.251556-1.251556 1.251556z" fill="#006934" p-id="9402"></path>
    <path d="M934.798222 616.675556h-74.183111c-0.910222 0-1.706667-0.796444-1.706667-1.706667s0.796444-1.706667 1.706667-1.706667h74.183111c0.910222 0 1.706667 0.796444 1.706667 1.706667s-0.796444 1.706667-1.706667 1.706667z" fill="#006934" p-id="9403"></path>
    <path d="M878.250667 774.030222h-21.617778c-0.455111 0-0.910222-0.227556-1.251556-0.568889-0.341333-0.341333-0.455111-0.796444-0.455111-1.365333l8.419556-148.593778 3.527111 0.227556-8.305778 146.659555h18.204445l15.36-109.112889c0.113778-0.910222 0.910222-1.479111 1.706666-1.479111h3.754667v3.527111H895.431111l-15.36 109.112889c-0.227556 0.910222-0.910222 1.592889-1.820444 1.592889z" fill="#006934" p-id="9404"></path>
    <path d="M882.460444 783.701333h-30.947555c-1.024 0-1.820444-0.796444-1.820445-1.820444v-9.671111c0-1.024 0.796444-1.820444 1.820445-1.820445h30.947555c1.024 0 1.820444 0.796444 1.820445 1.820445v9.671111c-0.113778 1.024-0.910222 1.820444-1.820445 1.820444z m-29.240888-3.640889H880.64v-6.144h-27.420444v6.144zM878.819556 812.487111h-54.727112c-1.024 0-1.820444-0.796444-1.820444-1.820444v-8.988445c0-0.796444 0.568889-1.592889 1.365333-1.706666 0.113778 0 15.246222-3.299556 24.917334-11.946667 0.568889-0.568889 1.479111-0.568889 2.161777-0.113778 11.605333 8.078222 27.648 6.257778 27.761778 6.257778 0.455111-0.113778 1.024 0.113778 1.365334 0.455111 0.341333 0.341333 0.568889 0.796444 0.568888 1.365333v14.791111c0.227556 0.910222-0.568889 1.706667-1.592888 1.706667z m-53.020445-3.527111h51.2v-11.150222c-4.778667 0.227556-16.952889 0.227556-27.079111-6.257778-8.647111 7.168-20.138667 10.581333-24.120889 11.491556v5.916444z" fill="#006934" p-id="9405"></path>
    <path d="M854.669084 794.20416l1.080889-13.038933 3.514596 0.290133-1.080889 13.040071zM870.815289 796.53888l1.565582-14.822969 3.507769 0.370916-1.565582 14.822969zM878.819556 806.343111h-54.727112c-0.682667 0-1.251556-0.568889-1.251555-1.251555s0.568889-1.251556 1.251555-1.251556h54.727112c0.682667 0 1.251556 0.568889 1.251555 1.251556s-0.568889 1.251556-1.251555 1.251555z" fill="#006934" p-id="9406"></path>
    <path d="M842.183111 806.343111c-0.682667 0-1.251556-0.568889-1.251555-1.251555-0.227556-4.892444-3.185778-7.395556-3.299556-7.395556-0.568889-0.455111-0.682667-1.251556-0.227556-1.820444 0.455111-0.568889 1.251556-0.682667 1.820445-0.227556 0.113778 0.113778 3.982222 3.185778 4.323555 9.329778-0.113778 0.796444-0.682667 1.365333-1.365333 1.365333zM849.806222 799.744c-0.568889 0-1.024-0.341333-1.251555-0.910222-1.024-3.072-3.640889-5.347556-3.640889-5.461334-0.568889-0.455111-0.568889-1.251556-0.113778-1.820444s1.251556-0.568889 1.820444-0.113778c0.113778 0.113778 3.185778 2.844444 4.437334 6.599111 0.227556 0.682667-0.113778 1.365333-0.796445 1.592889-0.227556 0.113778-0.341333 0.113778-0.455111 0.113778zM938.439111 774.030222h-21.617778c-0.910222 0-1.592889-0.682667-1.706666-1.479111l-15.36-109.226667h-2.161778v-3.527111h3.754667c0.910222 0 1.592889 0.682667 1.706666 1.479111l15.36 109.112889h18.204445l-8.305778-146.659555 3.527111-0.227556 8.419556 148.593778c0 0.455111-0.113778 0.910222-0.455112 1.365333-0.455111 0.341333-0.910222 0.568889-1.365333 0.568889z" fill="#006934" p-id="9407"></path>
    <path d="M943.672889 783.701333h-30.947556c-1.024 0-1.820444-0.796444-1.820444-1.820444v-9.671111c0-1.024 0.796444-1.820444 1.820444-1.820445h30.947556c1.024 0 1.820444 0.796444 1.820444 1.820445v9.671111c-0.113778 1.024-0.910222 1.820444-1.820444 1.820444z m-29.240889-3.640889h27.420444v-6.144h-27.420444v6.144zM970.979556 812.487111h-54.727112c-1.024 0-1.820444-0.796444-1.820444-1.820444v-14.791111c0-0.455111 0.227556-1.024 0.568889-1.365334 0.341333-0.341333 0.910222-0.455111 1.365333-0.455111 0.113778 0 16.156444 1.820444 27.761778-6.257778 0.682667-0.455111 1.592889-0.455111 2.161778 0.113778 9.671111 8.760889 24.689778 11.946667 24.917333 11.946667 0.796444 0.227556 1.365333 0.910222 1.365333 1.706666v8.988445c0.227556 1.137778-0.568889 1.934222-1.592888 1.934222z m-52.906667-3.527111h51.2v-5.802667c-3.982222-1.024-15.473778-4.323556-24.120889-11.491555-10.126222 6.485333-22.414222 6.485333-27.079111 6.257778v11.036444z" fill="#006934" p-id="9408"></path><path d="M935.86432 781.610098l3.515733-0.292409 0.903396 10.886258-3.515733 0.291271zM919.069582 782.101618l3.507769-0.372054 1.570133 14.821832-3.507768 0.372053zM970.979556 806.343111h-54.727112c-0.682667 0-1.251556-0.568889-1.251555-1.251555s0.568889-1.251556 1.251555-1.251556h54.727112c0.682667 0 1.251556 0.568889 1.251555 1.251556s-0.568889 1.251556-1.251555 1.251555z" fill="#006934" p-id="9409"></path>
    <path d="M952.888889 806.343111c-0.796444 0-1.251556-0.682667-1.251556-1.365333 0.341333-6.144 4.096-9.216 4.323556-9.329778 0.568889-0.455111 1.365333-0.341333 1.820444 0.227556 0.455111 0.568889 0.341333 1.365333-0.227555 1.820444-0.113778 0.113778-3.072 2.503111-3.299556 7.395556-0.113778 0.796444-0.682667 1.251556-1.365333 1.251555zM945.265778 799.744c-0.113778 0-0.227556 0-0.341334-0.113778-0.682667-0.227556-1.024-0.910222-0.796444-1.592889 1.137778-3.754667 4.209778-6.485333 4.437333-6.599111 0.568889-0.455111 1.365333-0.455111 1.820445 0.113778 0.455111 0.568889 0.455111 1.365333-0.113778 1.820444 0 0-2.730667 2.389333-3.640889 5.461334-0.341333 0.568889-0.796444 0.910222-1.365333 0.910222z" fill="#006934" p-id="9410"></path><path d="M439.068444 540.899556l-0.341333-0.341334 1.024-0.796444 0.682667-1.024-0.568889 0.910222 0.796444-0.796444-0.796444 0.796444z" fill="#006934" p-id="9411"></path>
    <path d="M782.791111 817.948444h-36.295111c-0.682667 0-1.251556-0.568889-1.251556-1.251555s0.568889-1.251556 1.251556-1.251556H782.791111c0.682667 0 1.251556 0.568889 1.251556 1.251556s-0.455111 1.251556-1.251556 1.251555z" fill="#6D6E71" p-id="9412"></path>
    <path d="M804.067556 817.948444h-14.108445c-0.682667 0-1.251556-0.568889-1.251555-1.251555s0.568889-1.251556 1.251555-1.251556h14.108445c0.682667 0 1.251556 0.568889 1.251555 1.251556s-0.568889 1.251556-1.251555 1.251555z" fill="#6D6E71" p-id="9413"></path>
    <path d="M1040.042667 817.948444h-22.300445c-0.682667 0-1.251556-0.568889-1.251555-1.251555s0.568889-1.251556 1.251555-1.251556h22.300445c0.682667 0 1.251556 0.568889 1.251555 1.251556s-0.568889 1.251556-1.251555 1.251555z" fill="#6D6E71" p-id="9414"></path>
    <path d="M1011.370667 817.948444H812.600889c-0.682667 0-1.251556-0.568889-1.251556-1.251555s0.568889-1.251556 1.251556-1.251556h198.769778c0.682667 0 1.251556 0.568889 1.251555 1.251556s-0.568889 1.251556-1.251555 1.251555z" fill="#6D6E71" p-id="9415"></path>
    <path d="M741.148444 267.377778l47.445334-112.64h26.851555v112.64h17.180445v26.965333h-17.180445v38.343111H788.48v-38.343111h-47.445333V267.377778z m47.331556 0v-55.523556L766.407111 267.377778H788.48zM939.690667 292.181333c0 11.832889-4.209778 21.845333-12.515556 30.037334-8.305778 8.192-18.318222 12.401778-29.923555 12.401777-11.832889 0-21.845333-4.096-30.151112-12.401777-8.305778-8.305778-12.401778-18.318222-12.401777-30.037334v-97.052444c0-11.832889 4.209778-21.845333 12.515555-30.151111 8.305778-8.305778 18.318222-12.401778 30.037334-12.401778 11.832889 0 21.845333 4.209778 30.037333 12.515556 8.192 8.305778 12.401778 18.318222 12.401778 30.037333v97.052444zM911.815111 194.56c0-4.209778-1.479111-7.850667-4.551111-10.922667-3.072-3.072-6.712889-4.551111-10.922667-4.551111s-7.850667 1.479111-10.808889 4.551111c-2.958222 3.072-4.437333 6.712889-4.437333 10.922667v97.166222c0 4.209778 1.479111 7.850667 4.437333 10.922667 2.958222 3.072 6.599111 4.551111 10.808889 4.551111s7.850667-1.479111 10.922667-4.551111c3.072-3.072 4.551111-6.712889 4.551111-10.922667V194.56zM958.122667 267.377778l47.445333-112.64h26.851556v112.64h17.180444v26.965333h-17.180444v38.343111h-26.851556v-38.343111h-47.445333V267.377778z m47.331555 0v-55.523556L983.381333 267.377778h22.072889z" fill="#006934" p-id="9416"></path>
    <path d="M821.134222 337.464889H793.031111v-38.343111h-47.445333v-27.761778l47.559111-113.095111h27.875555v112.64h17.180445v28.216889h-17.180445v38.343111z m-26.851555-1.251556h25.6v-38.343111h17.180444v-25.713778h-17.180444v-112.64h-25.827556l-47.217778 112.184889v26.282667h47.445334v38.229333z m0-64.056889h-23.665778l23.665778-59.278222v59.278222z m-21.845334-1.251555H793.031111v-51.882667l-20.593778 51.882667zM902.371556 339.399111c-11.946667 0-22.186667-4.209778-30.606223-12.629333-8.305778-8.305778-12.629333-18.545778-12.629333-30.492445v-97.052444c0-11.946667 4.209778-22.186667 12.629333-30.606222 8.419556-8.305778 18.659556-12.629333 30.492445-12.629334 11.946667 0 22.186667 4.209778 30.492444 12.629334 8.305778 8.419556 12.515556 18.659556 12.515556 30.492444v97.052445c0 11.946667-4.209778 22.186667-12.629334 30.492444-8.305778 8.533333-18.545778 12.743111-30.264888 12.743111z m0-182.044444c-11.491556 0-21.504 4.096-29.696 12.288-8.192 8.078222-12.288 18.090667-12.288 29.696v97.052444c0 11.491556 4.096 21.504 12.288 29.582222 8.078222 8.078222 18.090667 12.288 29.696 12.288 11.377778 0 21.390222-4.096 29.468444-12.174222 8.192-8.078222 12.288-18.090667 12.288-29.696v-97.052444c0-11.491556-4.096-21.504-12.174222-29.696-7.964444-8.192-17.976889-12.288-29.582222-12.288z m-0.910223 154.624c-4.437333 0-8.192-1.592889-11.264-4.664889-3.072-3.185778-4.664889-6.940444-4.664889-11.377778v-97.166222c0-4.437333 1.592889-8.192 4.664889-11.377778 3.072-3.185778 6.826667-4.664889 11.264-4.664889 4.437333 0 8.192 1.592889 11.377778 4.664889 3.185778 3.185778 4.664889 6.940444 4.664889 11.377778v97.166222c0 4.437333-1.592889 8.192-4.664889 11.377778-3.072 3.072-6.940444 4.664889-11.377778 4.664889z m0-128.113778c-4.096 0-7.623111 1.479111-10.467555 4.323555-2.844444 2.844444-4.323556 6.485333-4.323556 10.467556V295.822222c0 4.096 1.479111 7.623111 4.323556 10.467556 2.844444 2.844444 6.371556 4.323556 10.467555 4.323555 4.096 0 7.623111-1.479111 10.467556-4.323555 2.844444-2.844444 4.323556-6.485333 4.323555-10.467556v-97.166222c0-4.096-1.479111-7.623111-4.323555-10.467556-2.844444-2.844444-6.371556-4.323556-10.467556-4.323555zM1038.108444 337.464889h-27.989333v-38.343111h-47.445333v-27.761778l47.559111-113.095111h27.875555v112.64h17.180445v28.216889h-17.180445v38.343111z m-26.851555-1.251556h25.6v-38.343111h17.180444v-25.713778h-17.180444v-112.64h-25.827556l-47.217777 112.184889v26.282667h47.445333v38.229333z m0-64.056889H987.591111l23.665778-59.278222v59.278222z m-21.845333-1.251555h20.707555v-51.882667l-20.707555 51.882667z" fill="#414042" p-id="9417"></path>
</svg>