<svg xmlns="http://www.w3.org/2000/svg" fill="none" viewBox="0 0 25 25" height="25" width="25">
  <path fill="currentColor" d="M18.6613 7.4604C19.0518 7.06985 19.0518 6.43664 18.6613 6.04609C18.2708 5.65554 17.6376 5.65554 17.2471 6.04609L12.4542 10.8397L7.66126 6.04609C7.27076 5.65554 6.63764 5.65554 6.24715 6.04609C5.85665 6.43664 5.85665 7.06985 6.24715 7.4604L11.0401 12.254L5.93423 17.3606C5.54373 17.7511 5.54373 18.3843 5.93423 18.7749C6.32473 19.1655 6.95785 19.1655 7.34834 18.7749L12.4542 13.6683L17.5601 18.7749C17.9506 19.1655 18.5837 19.1655 18.9742 18.7749C19.3647 18.3843 19.3647 17.7511 18.9742 17.3606L13.8683 12.254L18.6613 7.4604Z" clip-rule="evenodd" fill-rule="evenodd"/>
</svg>