<svg xmlns="http://www.w3.org/2000/svg" fill="none" viewBox="0 0 20 20" height="20" width="20">
    <path fill="#333333" d="M4.36426 10C4.36426 10.5658 3.90561 11.0244 3.33984 11.0244C2.77412 11.0244 2.31543 10.5657 2.31543 10C2.31551 9.43433 2.77417 8.97564 3.33984 8.97559C3.90556 8.97559 4.36418 9.4343 4.36426 10ZM4.36426 14.9756C4.36426 15.5414 3.90561 16 3.33984 16C2.77412 15.9999 2.31543 15.5413 2.31543 14.9756C2.31558 14.41 2.77422 13.9512 3.33984 13.9512C3.90552 13.9512 4.3641 14.4099 4.36426 14.9756ZM4.36523 5.02441C4.36523 5.59018 3.90659 6.04883 3.34082 6.04883C2.77518 6.04868 2.31641 5.59009 2.31641 5.02441C2.31641 4.45874 2.77518 4.00015 3.34082 4C3.90659 4 4.36523 4.45865 4.36523 5.02441ZM19 5.02441C19 5.59018 18.5414 6.04883 17.9756 6.04883L6.85352 6.04883C6.28775 6.04883 5.8291 5.59018 5.8291 5.02441C5.8291 4.45865 6.28775 4 6.85352 4L17.9756 4C18.5414 4 19 4.45865 19 5.02441ZM19 10C19 10.5658 18.5414 11.0244 17.9756 11.0244L6.85352 11.0244C6.28775 11.0244 5.8291 10.5658 5.8291 10C5.82918 9.4343 6.28779 8.97559 6.85352 8.97559L17.9756 8.97559C18.5413 8.97559 18.9999 9.4343 19 10ZM19 14.9756C19 15.5414 18.5414 16 17.9756 16L6.85352 16C6.28775 16 5.8291 15.5414 5.8291 14.9756C5.82925 14.4099 6.28784 13.9512 6.85352 13.9512L17.9756 13.9512C18.5413 13.9512 18.9998 14.4099 19 14.9756Z"/>
</svg>