<?xml version="1.0" standalone="no"?><!DOCTYPE svg PUBLIC "-//W3C//DTD SVG 1.1//EN" "http://www.w3.org/Graphics/SVG/1.1/DTD/svg11.dtd"><svg t="1784883325399" class="icon" viewBox="0 0 1024 1024" version="1.1" xmlns="http://www.w3.org/2000/svg" p-id="16389" xmlns:xlink="http://www.w3.org/1999/xlink" width="200" height="200"><path d="M512 929.2c-12.4 0-24.8-2.8-35.2-8.6-77.4-42.2-213.6-87-298.8-98.2l-12-1.6c-54.2-6.6-99-57.6-99-112.6v-500c0-32.8 12.8-62.6 36.4-84 23.6-21.6 54.2-32 86.6-29 91 7 228.6 52.6 306.4 101.4l10 5.8c2.8 1.6 9.2 1.6 11.6 0.4l6.6-4.2c77.8-48.8 215.2-95.2 306.8-103h5c30.2-2.8 61.2 7.8 84.4 29.4 23.6 21.6 36.4 51.4 36.4 84v499.6c0 55.4-44.8 106-99.4 112.6l-13.6 1.6c-85.2 11.2-221.8 56.2-297.6 98.2-10.2 5.8-22.2 8.2-34.6 8.2zM180 156.8c-13.2 0-25.2 4.6-34.8 13.2-10.4 9.6-16.2 23.2-16.2 38v500c0 24.4 21.2 48 44.8 51.4l12.4 1.6c93.2 12.4 236 59.2 318.8 104.4 3.8 1.6 9.2 2 11.2 1.2 82.8-46 226.4-93.2 320-105.6l14-1.6c23.6-2.8 44.8-27 44.8-51.4V208.6c0-15.4-5.8-28.6-16.2-38.4-10.8-9.6-24.4-14-39.8-13.2H834c-79 6.8-206.6 49.6-276 93l-6.6 4.6c-22.8 14-55 14-77 0.4l-10-5.8c-70.8-43.4-198.2-85.6-279.4-92.4H180z" p-id="16390" fill="#762e02"></path><path d="M512 894.6c-17 0-31-14-31-31V242.6c0-17 14-31 31-31s31 14 31 31v621c0 17.2-14 31-31 31zM336 397.8h-93.2c-17 0-31-14-31-31s14-31 31-31H336c17 0 31 14 31 31 0.2 17-14 31-31 31zM367.2 522h-124.2c-17 0-31-14-31-31s14-31 31-31h124.2c17 0 31 14 31 31 0 16.8-14.2 31-31 31z" p-id="16391" fill="#762e02"></path></svg>